<?xml version="1.0" encoding="UTF-8"?>
<svg width="1000px" height="1000px" viewBox="0 0 1000 1000" version="1.1" xmlns="http://www.w3.org/2000/svg">
    <g stroke="none" stroke-width="1" fill="none" fill-rule="evenodd">
        <path d="M500,0 C776.142375,0 1000,223.857625 1000,500 C1000,776.142375 776.142375,1000 500,1000 C223.857625,1000 0,776.142375 0,500 C0,223.857625 223.857625,0 500,0 Z M500,100 C279.085969,100 100,279.085969 100,500 C100,720.914031 279.085969,900 500,900 C720.914031,900 900,720.914031 900,500 C900,279.085969 720.914031,100 500,100 Z" fill="#32BCAD"></path>
        <path d="M500,200 C665.685425,200 800,334.314575 800,500 C800,665.685425 665.685425,800 500,800 C334.314575,800 200,665.685425 200,500 C200,334.314575 334.314575,200 500,200 Z M500,300 C389.543051,300 300,389.543051 300,500 C300,610.456949 389.543051,700 500,700 C610.456949,700 700,610.456949 700,500 C700,389.543051 610.456949,300 500,300 Z" fill="#32BCAD"></path>
    </g>
</svg>
