<?xml version="1.0" encoding="UTF-8"?>
<svg width="1000px" height="324px" viewBox="0 0 1000 324" version="1.1" xmlns="http://www.w3.org/2000/svg">
    <g stroke="none" stroke-width="1" fill="none" fill-rule="evenodd">
        <path d="M651.8,7.5 L557.5,316.5 L469.1,316.5 L563.4,7.5 L651.8,7.5 Z M859.5,206.9 L899.8,134.1 L921.2,206.9 L859.5,206.9 Z M960.8,316.5 L1000,7.5 L923.4,7.5 C903.4,7.5 886.7,19.4 880.1,37.7 L759.7,316.5 L850.9,316.5 L867.8,272.6 L955.8,272.6 L960.8,316.5 Z M717.5,7.5 L644.5,316.5 L557.2,316.5 L630.2,7.5 L717.5,7.5 Z M373.5,7.5 L458.1,7.5 L384.9,316.5 L300.2,316.5 C283.9,316.5 269.5,306.1 265.4,290.6 L185.4,37.7 C181.3,22.2 167,7.5 150.7,7.5 L0.8,7.5 L0,16.4 C29.9,22.4 63.9,32.3 94.1,44.5 C111.7,51.7 114.8,58.9 119.9,77.5 L178.6,272.6 L271.7,272.6 L373.5,7.5 Z" fill="#1A1F71"></path>
    </g>
</svg>
